<?xml version="1.0" encoding="UTF-8"?><svg id="Layer_1" xmlns="http://www.w3.org/2000/svg" viewBox="0 0 24 24"><defs><style>.cls-1,.cls-2{fill:#fcb720;}.cls-3{fill:#b43626;}.cls-4{fill:#c95c28;}.cls-2{opacity:.54;}</style></defs><path class="cls-4" d="M12.09,19.13L.17,9.43,12.09,0v19.13Z"/><path class="cls-3" d="M12.09,19.13l11.91-9.7L12.09,0v19.13Z"/><path class="cls-1" d="M18.36,13.9H5.81c-.43.9-.68,1.91-.68,2.98,0,3.84,3.11,6.95,6.95,6.95s6.95-3.11,6.95-6.95c0-1.07-.25-2.07-.68-2.98Z"/><path class="cls-2" d="M18.22,13.88c-.11-.22-.23-.44-.37-.65-.02-.04-.04-.07-.07-.11-.16-.24-.33-.46-.52-.68-.05-.05-.1-.11-.14-.16-.16-.17-.32-.34-.5-.49-.05-.04-.09-.09-.14-.13-.22-.18-.44-.35-.68-.51-.05-.03-.11-.06-.16-.1-.2-.12-.4-.24-.62-.34-.07-.03-.13-.07-.2-.1-.26-.12-.53-.22-.81-.31-.04-.01-.09-.02-.13-.03-.24-.07-.49-.12-.75-.17-.08-.01-.16-.03-.24-.04-.3-.04-.6-.07-.91-.07,0,0,0,0,0,0s0,0,0,0c-.31,0-.61.03-.91.07-.08.01-.16.02-.24.04-.25.04-.5.1-.75.17-.04.01-.09.02-.13.03-.28.08-.55.19-.81.31-.07.03-.13.06-.2.1-.21.1-.42.22-.62.34-.05.03-.11.06-.16.1-.24.16-.46.33-.68.51-.05.04-.09.08-.14.13-.17.16-.34.32-.5.49-.05.05-.1.1-.14.16-.18.22-.36.44-.52.68-.02.04-.04.07-.07.11-.13.21-.25.43-.37.65-.02.04-.04.07-.05.11h12.54s-.03-.07-.05-.11Z"/></svg>