<?xml version="1.0" encoding="UTF-8"?><svg id="Layer_1" xmlns="http://www.w3.org/2000/svg" viewBox="0 0 24 24"><defs><style>.cls-1{fill:#c95c28;}</style></defs><path class="cls-1" d="M5.2,2.86c2.75,2.07,5.71,6.25,6.8,8.5,1.09-2.25,4.05-6.44,6.8-8.5,1.99-1.49,5.2-2.64,5.2,1.03,0,.73-.42,6.16-.67,7.04-.86,3.06-3.98,3.84-6.76,3.37,4.85.83,6.09,3.56,3.42,6.3-5.06,5.2-7.28-1.3-7.85-2.97-.1-.31-.15-.45-.15-.33,0-.12-.05.02-.15.33-.57,1.67-2.78,8.17-7.85,2.97-2.67-2.74-1.43-5.47,3.42-6.3-2.78.47-5.9-.31-6.76-3.37-.25-.88-.67-6.3-.67-7.04C0,.21,3.22,1.37,5.2,2.86h0Z"/></svg>