<?xml version="1.0" encoding="UTF-8"?><svg id="Layer_1" xmlns="http://www.w3.org/2000/svg" viewBox="0 0 24 24"><defs><style>.cls-1{fill:#c95c28;}</style></defs><path class="cls-1" d="M21.33,0H2.67C1.19,0,0,1.19,0,2.67v18.67C0,22.81,1.19,24,2.67,24h18.67c1.47,0,2.67-1.19,2.67-2.67V2.67C24,1.19,22.81,0,21.33,0ZM7.26,20.67h-3.58v-11.56h3.58v11.56ZM5.45,7.6c-1.17,0-2.12-.95-2.12-2.13s.95-2.13,2.12-2.13,2.12.95,2.12,2.13-.95,2.13-2.12,2.13ZM20.67,20.67h-3.56v-6.07c0-1.66-.63-2.59-1.95-2.59-1.43,0-2.18.97-2.18,2.59v6.07h-3.43v-11.56h3.43v1.56s1.03-1.91,3.48-1.91,4.21,1.5,4.21,4.59v7.32Z"/></svg>